<?xml version="1.0" encoding="UTF-8"?>
<svg width="126px" height="72px" viewBox="0 0 126 72" version="1.1" xmlns="http://www.w3.org/2000/svg" xmlns:xlink="http://www.w3.org/1999/xlink">
    <!-- Generator: Sketch 54.1 (76490) - https://sketchapp.com -->
    <title>Group 57</title>
    <desc>Created with Sketch.</desc>
    <g id="Home" stroke="none" stroke-width="1" fill="none" fill-rule="evenodd">
        <g transform="translate(-657.000000, -1496.000000)" id="Group-10">
            <g transform="translate(571.000000, 1452.000000)">
                <g id="Group-57" transform="translate(88.000000, 45.000000)">
                    <polygon id="Fill-1" fill="#FCC480" points="30.3361095 60.4992051 97.3325036 60.4992051 97.3325036 0.000358974359 30.3361095 0.000358974359"></polygon>
                    <polygon id="Stroke-2" stroke="#4B4B4B" stroke-width="2" stroke-linecap="round" stroke-linejoin="round" points="30.3361095 60.4992051 97.3325036 60.4992051 97.3325036 0.000358974359 30.3361095 0.000358974359"></polygon>
                    <polygon id="Fill-4" fill="#FDDEBC" points="84.937246 15.3870769 84.937246 60.4993846 122.323859 60.4993846 122.323859 40.9155385 113.566618 34.9179744 105.892136 15.3870769"></polygon>
                    <polygon id="Stroke-5" stroke="#4B4B4B" stroke-width="2" stroke-linecap="round" stroke-linejoin="round" points="84.937246 15.3870769 84.937246 60.4993846 122.323859 60.4993846 122.323859 40.9155385 113.566618 34.9179744 105.892136 15.3870769"></polygon>
                    <polygon id="Fill-7" fill="#FEFEFE" points="89.6594584 20.5815256 89.6594584 33.8178077 107.663247 33.8178077 101.464765 20.5815256"></polygon>
                    <polygon id="Stroke-8" stroke="#4B4B4B" stroke-width="3" stroke-linecap="round" stroke-linejoin="round" points="89.6594584 20.5815256 89.6594584 33.8178077 107.663247 33.8178077 101.464765 20.5815256"></polygon>
                    <polygon id="Fill-9" fill="#FCC480" points="122.32341 46.1610513 116.221892 46.1610513 117.993272 50.7074615 122.32341 50.7074615"></polygon>
                    <g id="Group-56" transform="translate(0.000000, 7.519974)">
                        <polygon id="Stroke-10" stroke="#4B4B4B" stroke-width="2" stroke-linecap="round" stroke-linejoin="round" points="122.32341 38.6410769 116.221892 38.6410769 117.993272 43.1874872 122.32341 43.1874872"></polygon>
                        <path d="M54.2301613,53.0816282 C54.2301613,57.7168846 50.4431978,61.4744487 45.7727891,61.4744487 C41.1014825,61.4744487 37.3154168,57.7168846 37.3154168,53.0816282 C37.3154168,48.4463718 41.1014825,44.6879103 45.7727891,44.6879103 C50.4431978,44.6879103 54.2301613,48.4463718 54.2301613,53.0816282" id="Fill-12" fill="#636363"></path>
                        <path d="M54.2301613,53.0816282 C54.2301613,57.7168846 50.4431978,61.4744487 45.7727891,61.4744487 C41.1014825,61.4744487 37.3154168,57.7168846 37.3154168,53.0816282 C37.3154168,48.4463718 41.1014825,44.6879103 45.7727891,44.6879103 C50.4431978,44.6879103 54.2301613,48.4463718 54.2301613,53.0816282 Z" id="Stroke-14" stroke="#4B4B4B" stroke-width="3" stroke-linecap="round" stroke-linejoin="round"></path>
                        <path d="M116.221982,53.0816282 C116.221982,57.7168846 112.601113,61.4744487 108.132712,61.4744487 C103.666106,61.4744487 100.043442,57.7168846 100.043442,53.0816282 C100.043442,48.4463718 103.666106,44.6879103 108.132712,44.6879103 C112.601113,44.6879103 116.221982,48.4463718 116.221982,53.0816282" id="Fill-16" fill="#636363"></path>
                        <path d="M116.221982,53.0816282 C116.221982,57.7168846 112.601113,61.4744487 108.132712,61.4744487 C103.666106,61.4744487 100.043442,57.7168846 100.043442,53.0816282 C100.043442,48.4463718 103.666106,44.6879103 108.132712,44.6879103 C112.601113,44.6879103 116.221982,48.4463718 116.221982,53.0816282 Z" id="Stroke-18" stroke="#4B4B4B" stroke-width="3" stroke-linecap="round" stroke-linejoin="round"></path>
                        <path d="M49.6490847,53.0816282 C49.6490847,55.205859 47.9127197,56.9280385 45.773238,56.9280385 C43.6319606,56.9280385 41.8964934,55.205859 41.8964934,53.0816282 C41.8964934,50.9573974 43.6319606,49.2343205 45.773238,49.2343205 C47.9127197,49.2343205 49.6490847,50.9573974 49.6490847,53.0816282" id="Fill-20" fill="#FEFEFE"></path>
                        <path d="M49.6490847,53.0816282 C49.6490847,55.205859 47.9127197,56.9280385 45.773238,56.9280385 C43.6319606,56.9280385 41.8964934,55.205859 41.8964934,53.0816282 C41.8964934,50.9573974 43.6319606,49.2343205 45.773238,49.2343205 C47.9127197,49.2343205 49.6490847,50.9573974 49.6490847,53.0816282 Z" id="Stroke-22" stroke="#4B4B4B" stroke-width="3" stroke-linecap="round" stroke-linejoin="round"></path>
                        <path d="M111.840847,53.0816282 C111.840847,55.205859 110.180796,56.9280385 108.132891,56.9280385 C106.085884,56.9280385 104.425833,55.205859 104.425833,53.0816282 C104.425833,50.9573974 106.085884,49.2343205 108.132891,49.2343205 C110.180796,49.2343205 111.840847,50.9573974 111.840847,53.0816282" id="Fill-24" fill="#FEFEFE"></path>
                        <path d="M111.840847,53.0816282 C111.840847,55.205859 110.180796,56.9280385 108.132891,56.9280385 C106.085884,56.9280385 104.425833,55.205859 104.425833,53.0816282 C104.425833,50.9573974 106.085884,49.2343205 108.132891,49.2343205 C110.180796,49.2343205 111.840847,50.9573974 111.840847,53.0816282 Z" id="Stroke-26" stroke="#4B4B4B" stroke-width="3" stroke-linecap="round" stroke-linejoin="round"></path>
                        <polygon id="Fill-28" fill="#F05A2B" points="66.3655029 0.661320513 50.1115467 19.9095256 58.0077876 23.1690128 52.1280285 38.6847821 68.6378606 20.3438846 60.0763423 16.5585"></polygon>
                        <polygon id="Stroke-30" stroke="#4B4B4B" stroke-width="2" stroke-linecap="round" stroke-linejoin="round" points="66.3655029 0.661320513 50.1115467 19.9095256 58.0077876 23.1690128 52.1280285 38.6847821 68.6378606 20.3438846 60.0763423 16.5585"></polygon>
                        <g id="Group-35" transform="translate(8.080292, 4.487179)">
                            <path d="M0.548292701,0.51674359 L26.513862,0.51674359" id="Fill-32" fill="#FDDEBC"></path>
                            <path d="M0.548292701,0.51674359 L26.513862,0.51674359" id="Stroke-34" stroke="#4B4B4B" stroke-width="3" stroke-linecap="round" stroke-linejoin="round"></path>
                        </g>
                        <g id="Group-39" transform="translate(18.854015, 15.256410)">
                            <path d="M0.283528467,1.00225641 L14.2992438,1.00225641" id="Fill-36" fill="#FDDEBC"></path>
                            <path d="M0.283528467,1.00225641 L14.2992438,1.00225641" id="Stroke-38" stroke="#4B4B4B" stroke-width="3" stroke-linecap="round" stroke-linejoin="round"></path>
                        </g>
                        <g id="Group-43" transform="translate(0.000000, 24.230769)">
                            <path d="M0.449264234,1.07674359 L23.0893445,1.07674359" id="Fill-40" fill="#FDDEBC"></path>
                            <path d="M0.449264234,1.07674359 L23.0893445,1.07674359" id="Stroke-42" stroke="#4B4B4B" stroke-width="3" stroke-linecap="round" stroke-linejoin="round"></path>
                        </g>
                        <g id="Group-47" transform="translate(17.956204, 33.205128)">
                            <path d="M0.599108759,1.15123077 L12.5435759,1.15123077" id="Fill-44" fill="#FDDEBC"></path>
                            <path d="M0.599108759,1.15123077 L12.5435759,1.15123077" id="Stroke-46" stroke="#4B4B4B" stroke-width="3" stroke-linecap="round" stroke-linejoin="round"></path>
                        </g>
                        <g id="Group-51" transform="translate(7.182482, 33.205128)">
                            <path d="M0.850764964,1.15123077 L5.25452409,1.15123077" id="Fill-48" fill="#FDDEBC"></path>
                            <path d="M0.850764964,1.15123077 L5.25452409,1.15123077" id="Stroke-50" stroke="#4B4B4B" stroke-width="3" stroke-linecap="round" stroke-linejoin="round"></path>
                        </g>
                        <g id="Group-55" transform="translate(9.875912, 15.256410)">
                            <path d="M0.817456204,1.00225641 L3.74521533,1.00225641" id="Fill-52" fill="#FDDEBC"></path>
                            <path d="M0.817456204,1.00225641 L3.74521533,1.00225641" id="Stroke-54" stroke="#4B4B4B" stroke-width="3" stroke-linecap="round" stroke-linejoin="round"></path>
                        </g>
                    </g>
                </g>
            </g>
        </g>
    </g>
</svg>