<svg id="Layer_1" height="512" viewBox="0 0 128 128" width="512" xmlns="http://www.w3.org/2000/svg" data-name="Layer 1"><path d="m102.128 96.851 6.3 14.173a1.75 1.75 0 1 0 3.2-1.422l-6.3-14.173a1.75 1.75 0 1 0 -3.2 1.422z"/><path d="m123.1 120.649-17.69-39.811a1.75 1.75 0 0 0 -1.6-1.039h-19.979c5.388-8.669 10.107-17.799 12.947-26.148a43.164 43.164 0 0 0 2.657-13.466 35.436 35.436 0 1 0 -70.871 0 43.174 43.174 0 0 0 2.657 13.467c2.84 8.353 7.56 17.478 12.948 26.147h-19.979a1.75 1.75 0 0 0 -1.6 1.039l-17.69 39.811a1.75 1.75 0 0 0 1.6 2.461h115a1.75 1.75 0 0 0 1.6-2.461zm-91.036-80.463a31.936 31.936 0 1 1 63.871 0 39.8 39.8 0 0 1 -2.471 12.34c-3.041 8.945-8.311 18.822-14.24 28.026-.013.019-.025.039-.037.058a194.664 194.664 0 0 1 -15.187 20.526 194.667 194.667 0 0 1 -15.188-20.525c-.013-.02-.024-.04-.038-.059-5.929-9.2-11.2-19.081-14.239-28.025a39.812 39.812 0 0 1 -2.471-12.341zm-22.872 79.424 16.135-36.31h21.073a194.324 194.324 0 0 0 16.29 21.663 1.75 1.75 0 0 0 2.629 0 194.313 194.313 0 0 0 16.281-21.663h21.068l16.135 36.311z"/><path d="m64 58.775a18.592 18.592 0 1 0 -18.592-18.591 18.613 18.613 0 0 0 18.592 18.591zm0-33.684a15.092 15.092 0 1 1 -15.092 15.093 15.109 15.109 0 0 1 15.092-15.092z"/></svg>